<?xml version="1.0" standalone="no"?>
<!DOCTYPE svg PUBLIC "-//W3C//DTD SVG 20010904//EN"
 "http://www.w3.org/TR/2001/REC-SVG-20010904/DTD/svg10.dtd">
<svg version="1.0" xmlns="http://www.w3.org/2000/svg"
 width="300.000000pt" height="300.000000pt" viewBox="0 0 300.000000 300.000000"
 preserveAspectRatio="xMidYMid meet">
<metadata>
Created by potrace 1.11, written by Peter Selinger 2001-2013
</metadata>
<g transform="translate(0.000000,300.000000) scale(0.100000,-0.100000)"
fill="#000000" stroke="none">
<path d="M1634 2523 c3 -181 9 -365 12 -410 l7 -83 -37 0 c-20 0 -55 9 -77 20
-30 16 -44 18 -59 10 -22 -12 -26 -26 -8 -32 24 -8 -5 -28 -42 -28 -27 0 -42
6 -49 18 -11 19 5 26 -161 -69 -97 -57 -89 -59 -140 46 -37 77 -47 110 -29
100 9 -6 11 -3 6 9 -4 10 -3 15 4 11 12 -8 41 14 33 26 -3 5 0 9 7 9 7 0 10 2
7 5 -3 3 -21 -2 -41 -10 -20 -8 -40 -15 -45 -15 -9 0 -68 100 -110 185 -13 28
-35 64 -47 80 -12 17 -32 55 -44 85 -13 30 -40 91 -61 135 -21 44 -48 102 -61
128 -24 54 -37 62 -74 53 -22 -6 -24 -10 -19 -34 4 -15 10 -31 14 -37 5 -5 35
-62 67 -125 118 -227 176 -335 189 -350 13 -15 77 -152 72 -154 -2 -1 -38 -23
-80 -48 -42 -26 -118 -62 -167 -80 -87 -32 -91 -34 -89 -63 1 -26 1 -27 5 -6
3 14 8 20 12 13 4 -7 47 9 125 48 66 33 123 60 128 60 5 0 26 11 48 25 l39 24
21 -34 c24 -39 35 -45 25 -14 -7 20 -6 20 18 5 13 -9 33 -33 43 -54 10 -20 21
-39 24 -42 3 -3 30 -57 60 -120 30 -63 59 -122 65 -130 6 -8 17 -28 25 -45 19
-40 18 -39 32 -28 25 19 47 23 41 7 -3 -8 -16 -17 -29 -20 -13 -3 -21 -10 -19
-15 3 -4 13 -5 23 -2 14 5 13 2 -3 -11 -11 -10 -14 -15 -7 -11 7 3 12 0 12 -8
0 -8 7 -28 16 -45 8 -18 13 -36 9 -42 -11 -17 9 -11 47 15 43 29 50 31 41 9
-3 -8 -17 -20 -32 -26 -16 -6 -21 -12 -13 -15 17 -7 64 6 58 15 -2 4 12 7 32
7 43 0 104 23 96 36 -3 5 2 6 10 3 22 -8 20 16 -1 32 -25 19 -84 19 -77 0 3
-8 14 -12 27 -9 21 4 21 4 2 -8 -11 -6 -25 -18 -32 -26 -10 -13 -16 -13 -47 7
-42 25 -44 33 -13 49 20 11 20 11 -8 6 -25 -5 -22 -1 25 30 38 24 62 34 78 30
23 -6 31 10 10 18 -9 4 -8 6 2 6 17 1 80 50 65 51 -5 0 -29 -11 -52 -25 -66
-37 -51 -20 22 26 36 22 65 45 65 50 0 4 7 6 15 3 8 -4 15 -2 15 3 0 18 -12
21 -42 11 -23 -8 -27 -13 -16 -20 9 -7 8 -8 -6 -4 -11 4 -43 -3 -73 -15 -42
-17 -56 -19 -68 -9 -8 6 -18 9 -24 6 -5 -4 -15 0 -23 6 -7 7 -26 18 -42 23
-40 13 -39 28 2 29 17 1 32 -2 32 -6 0 -14 65 5 83 23 17 18 17 19 -3 39 -11
11 -16 20 -11 20 6 0 22 11 36 24 l27 25 -44 4 c-32 3 -26 4 25 5 41 1 67 -2
67 -8 0 -6 -7 -10 -16 -8 -10 2 -19 -3 -21 -9 -5 -14 44 -18 85 -7 20 6 22 13
22 68 1 67 23 117 33 74 3 -13 6 -151 6 -308 0 -279 -3 -310 -33 -310 -6 0 -4
4 4 10 21 13 12 18 -69 35 -93 19 -95 19 -125 -7 -20 -17 -23 -27 -16 -38 8
-13 10 -13 10 1 0 9 7 22 15 29 12 10 15 9 15 -6 0 -14 3 -15 12 -6 18 18 30
14 19 -7 -9 -16 -6 -19 21 -25 17 -3 45 -6 62 -5 l31 0 -34 12 c-19 7 -36 17
-38 24 -3 8 7 6 29 -5 19 -9 63 -17 103 -19 58 -2 65 -1 43 8 -22 8 -28 17
-28 40 0 16 5 29 10 29 6 0 10 -9 10 -19 0 -14 9 -21 31 -26 17 -4 33 -4 36
-1 4 3 0 6 -9 6 -16 0 -49 33 -67 67 -10 19 -9 22 4 17 9 -4 15 0 15 9 0 8 -7
17 -15 21 -19 7 -21 96 -2 96 7 0 8 3 2 8 -5 4 -12 24 -13 46 l-4 38 25 -18
c14 -11 28 -29 32 -41 6 -26 18 -29 37 -10 7 8 20 16 28 19 9 3 2 8 -17 12
-18 4 -33 12 -33 18 0 17 -40 47 -55 42 -9 -4 -13 6 -12 35 1 34 5 42 29 52
25 10 31 9 54 -15 24 -23 25 -26 8 -27 -14 -1 -13 -3 6 -8 25 -7 24 -8 -7 -15
-18 -4 -33 -12 -33 -18 0 -6 7 -7 15 -4 52 21 51 21 35 1 -14 -17 -13 -18 13
-11 16 4 27 2 27 -4 0 -5 4 -10 10 -10 11 0 1 32 -14 42 -5 3 -11 16 -13 29
-3 17 0 19 10 11 7 -6 24 -9 38 -5 23 5 23 5 4 -10 -16 -13 -17 -17 -6 -31 19
-22 52 -20 58 4 3 11 14 20 24 20 12 0 16 -5 13 -15 -4 -9 0 -15 10 -15 9 0
16 5 16 10 0 12 20 13 39 1 13 -8 13 -12 1 -26 -12 -15 -11 -15 16 -8 37 10
85 7 129 -7 62 -21 64 -19 -180 -245 -84 -78 -102 -90 -134 -91 -20 0 -49 -1
-66 -2 -26 -2 -28 -4 -12 -13 10 -6 29 -8 43 -5 35 9 30 -11 -13 -51 -34 -31
-35 -33 -6 -14 17 12 36 21 42 21 6 0 11 5 11 10 0 6 5 10 12 10 12 0 -74 -88
-184 -187 -51 -46 -61 -51 -85 -43 -16 5 -46 14 -68 21 -47 15 -67 28 -59 40
3 5 -1 9 -8 9 -9 0 -9 3 2 10 12 8 13 11 1 19 -9 6 -6 9 13 9 21 -1 24 -3 16
-19 -6 -10 -10 -20 -10 -22 0 -8 91 -39 97 -33 3 3 12 1 20 -6 11 -8 12 -7 7
6 -3 9 -11 16 -18 16 -6 0 -4 5 4 10 22 14 26 13 37 -11 9 -22 10 -21 46 11
21 18 36 40 35 49 -2 11 3 15 17 13 16 -2 17 -1 6 7 -9 6 -21 6 -32 0 -10 -5
-29 -9 -43 -9 l-26 0 20 20 c11 11 32 20 48 20 16 0 41 13 61 30 l34 30 -36
15 c-40 16 -127 20 -127 6 0 -5 9 -7 20 -4 24 6 82 -16 74 -28 -3 -5 -13 -9
-23 -9 -10 0 -24 -7 -31 -15 -7 -8 -19 -15 -26 -15 -22 0 -56 40 -51 60 4 15
-3 18 -53 18 -32 0 -63 3 -69 6 -6 4 -25 -3 -43 -16 -18 -13 -35 -24 -37 -25
-2 -2 -2 -5 1 -8 3 -3 22 4 42 16 22 12 36 16 36 9 0 -6 4 -8 10 -5 6 3 7 -1
3 -10 -4 -11 -8 -13 -13 -5 -8 12 -17 3 -39 -42 -11 -22 -12 -30 -1 -43 9 -11
9 -15 1 -15 -6 0 -14 7 -17 15 -4 9 -20 15 -43 15 -20 1 -47 7 -61 15 l-25 14
25 10 c23 9 21 10 -18 10 -24 1 -41 5 -37 10 3 5 1 12 -5 16 -17 11 -1 24 66
56 36 17 64 33 61 35 -2 2 -29 -3 -61 -11 -31 -8 -67 -15 -79 -15 -18 1 -16 4
13 20 19 11 29 19 21 20 -8 0 -11 6 -7 16 3 8 1 24 -4 35 -11 20 -44 20 -134
-1 -41 -10 -133 -14 -125 -6 2 3 22 7 44 9 106 13 135 21 155 42 12 13 18 29
14 38 -6 18 -16 12 -55 -29 -14 -14 -34 -21 -66 -23 -25 0 -50 -4 -56 -8 -6
-3 -7 -1 -3 5 4 7 16 12 27 12 21 0 24 12 8 41 -6 11 -12 29 -14 39 -3 18 1
19 53 14 67 -7 81 -14 27 -14 -32 0 -36 -2 -25 -15 7 -8 17 -12 24 -8 6 4 5 0
-2 -9 -24 -30 6 -29 36 0 l30 29 -23 39 c-12 22 -42 77 -65 122 -24 46 -50 86
-57 89 -7 3 -25 -3 -41 -13 -39 -26 -191 -109 -302 -165 -52 -27 -100 -53
-107 -59 -7 -5 -18 -10 -24 -10 -7 0 0 -13 16 -30 34 -35 28 -37 -25 -10 -21
11 -41 16 -44 11 -3 -5 12 -31 34 -57 23 -27 67 -101 99 -164 32 -63 109 -212
171 -330 63 -118 132 -251 155 -295 23 -44 58 -107 78 -139 21 -33 37 -63 37
-66 0 -4 51 -35 112 -70 62 -35 165 -93 228 -130 63 -36 135 -74 159 -84 25
-9 61 -30 80 -45 20 -15 41 -31 48 -35 13 -7 151 151 179 207 10 17 59 84 110
148 50 64 103 134 117 156 40 63 95 306 143 631 7 51 18 110 23 130 6 20 22
105 36 187 14 83 30 165 35 184 l9 34 -24 -23 c-23 -22 -27 -22 -62 -9 -25 10
-39 22 -41 36 -3 17 -13 22 -55 27 -50 7 -133 29 -247 66 -60 20 -210 53 -224
50 -5 -1 -13 4 -17 12 -7 10 -9 10 -10 -2 0 -10 -3 -8 -8 5 -5 11 -7 206 -5
433 l4 412 -46 0 -46 0 6 -327z m101 -663 c3 -5 -1 -10 -10 -10 -9 0 -13 5
-10 10 3 6 8 10 10 10 2 0 7 -4 10 -10z m-385 -30 c0 -5 -7 -10 -16 -10 -8 0
-12 5 -9 10 3 6 10 10 16 10 5 0 9 -4 9 -10z m-84 -96 c-4 -10 3 -14 26 -14
27 0 30 -2 16 -12 -26 -22 -29 -46 -5 -43 12 1 36 3 54 4 26 1 30 4 26 21 -3
11 0 20 6 20 6 0 11 -6 11 -14 0 -8 6 -17 13 -19 7 -3 5 -6 -5 -6 -10 -1 -18
-6 -18 -12 0 -6 -7 -9 -15 -5 -8 3 -15 2 -15 -2 0 -4 -20 -7 -45 -8 -43 -1
-50 4 -46 34 1 6 -7 12 -18 12 -17 0 -30 19 -37 56 -1 6 10 8 28 6 20 -3 27
-9 24 -18z m-240 -123 c-3 -5 0 -14 8 -20 23 -19 17 -60 -10 -67 -35 -9 -44 2
-32 39 6 17 12 38 14 45 2 6 8 12 14 12 6 0 9 -4 6 -9z m-91 -79 c-3 -3 -11 0
-18 7 -9 10 -8 11 6 5 10 -3 15 -9 12 -12z m415 8 c-8 -5 -22 -10 -30 -10 -13
0 -13 1 0 10 8 5 22 10 30 10 13 0 13 -1 0 -10z m-510 -14 c0 -2 -7 -7 -16
-10 -8 -3 -12 -2 -9 4 6 10 25 14 25 6z m515 -54 c-12 -13 -24 22 -12 37 10
12 13 11 15 -8 2 -13 1 -26 -3 -29z m-115 -7 c0 -28 -3 -30 -29 -13 -18 11
-18 13 -3 25 25 18 32 16 32 -12z m-30 -35 c12 -8 11 -10 -5 -9 -11 1 -31 5
-45 9 -24 8 -24 8 5 9 17 0 37 -4 45 -9z m-93 -16 c-3 -3 -12 -4 -19 -1 -8 3
-5 6 6 6 11 1 17 -2 13 -5z m478 -104 c4 -6 12 -7 18 -4 7 4 5 -1 -5 -11 -19
-20 -62 -14 -72 10 -4 11 2 15 24 15 16 0 32 -5 35 -10z m59 -26 c22 -9 10
-23 -14 -17 -11 3 -17 9 -14 14 6 11 8 11 28 3z m-84 -44 c-8 -5 -19 -10 -25
-10 -5 0 -3 5 5 10 8 5 20 10 25 10 6 0 3 -5 -5 -10z m100 -19 c0 -10 -77 -31
-115 -31 -41 0 -19 20 23 21 30 1 63 8 90 18 1 1 2 -3 2 -8z"/>
<path d="M1730 2219 c0 -8 78 -23 103 -21 10 1 16 -2 13 -7 -3 -5 4 -9 17 -9
12 0 42 -7 67 -16 63 -21 163 -36 174 -25 5 5 8 10 5 12 -2 2 -60 16 -129 31
-129 30 -250 46 -250 35z"/>
<path d="M1588 2194 c-39 -21 -35 -28 5 -8 37 19 44 24 31 24 -5 -1 -21 -8
-36 -16z"/>
<path d="M2238 2123 c7 -3 16 -2 19 1 4 3 -2 6 -13 5 -11 0 -14 -3 -6 -6z"/>
<path d="M1459 2083 c-13 -16 -12 -17 4 -4 16 13 21 21 13 21 -2 0 -10 -8 -17
-17z"/>
<path d="M1550 1850 c-11 -7 -3 -9 28 -8 27 1 38 4 30 10 -17 10 -40 10 -58
-2z"/>
<path d="M1619 1831 c-14 -9 -26 -20 -25 -26 1 -5 -10 -12 -24 -13 -14 -2 -29
-8 -34 -13 -6 -5 -19 -9 -30 -9 -32 0 -46 -14 -40 -37 6 -22 34 -21 34 1 0 7
16 20 35 29 44 21 70 22 33 1 -34 -18 -35 -23 -3 -17 13 3 31 16 39 29 9 13
25 32 37 42 27 26 12 34 -22 13z"/>
<path d="M1507 1818 c6 -11 53 -10 53 2 0 5 -13 8 -29 7 -16 -1 -27 -5 -24 -9z"/>
<path d="M1745 1810 c-7 -11 2 -30 15 -30 4 0 10 6 13 14 6 16 -19 30 -28 16z"/>
<path d="M1640 1789 c0 -5 5 -7 10 -4 6 3 10 8 10 11 0 2 -4 4 -10 4 -5 0 -10
-5 -10 -11z"/>
<path d="M1910 1729 c0 -5 5 -7 10 -4 6 3 10 8 10 11 0 2 -4 4 -10 4 -5 0 -10
-5 -10 -11z"/>
<path d="M2083 1724 c-41 -17 -42 -23 -4 -22 15 1 33 -2 39 -6 17 -10 26 14
11 29 -11 10 -20 10 -46 -1z"/>
<path d="M1960 1720 c0 -11 14 -11 50 0 22 7 21 8 -12 9 -21 1 -38 -3 -38 -9z"/>
<path d="M2173 1700 c-6 -14 -8 -29 -5 -34 7 -13 24 22 19 42 -3 14 -6 12 -14
-8z"/>
<path d="M1614 1699 c-10 -4 -15 -8 -11 -8 4 -1 3 -10 -3 -21 -9 -17 -8 -20
12 -20 13 0 30 6 38 13 14 11 14 14 0 28 -11 10 -23 13 -36 8z"/>
<path d="M1873 1676 c3 -7 -1 -23 -8 -34 -8 -10 -12 -22 -8 -25 3 -4 0 -14 -8
-23 -12 -15 -12 -17 0 -13 7 3 22 26 32 51 16 41 16 47 2 52 -10 4 -14 2 -10
-8z"/>
<path d="M1927 1655 c-9 -19 -14 -35 -11 -35 15 0 60 47 56 58 -7 23 -28 12
-45 -23z"/>
<path d="M2018 1678 c18 -18 15 -26 -9 -30 -23 -3 -48 -33 -37 -43 11 -11 58
19 72 46 16 31 12 39 -18 39 -15 0 -17 -3 -8 -12z"/>
<path d="M2088 1673 c7 -3 16 -2 19 1 4 3 -2 6 -13 5 -11 0 -14 -3 -6 -6z"/>
<path d="M1575 1621 c6 -19 -5 -25 -80 -45 -11 -3 3 -3 30 -1 31 3 45 2 36 -4
-11 -7 -10 -11 6 -20 18 -9 21 -7 21 15 0 14 5 31 11 37 10 9 11 0 8 -40 -4
-45 -2 -51 12 -45 9 3 22 12 29 19 11 11 11 13 -2 13 -24 0 -28 18 -13 50 l15
30 -34 -5 c-21 -2 -32 0 -29 5 4 6 1 10 -5 10 -7 0 -9 -8 -5 -19z"/>
<path d="M2080 1620 c0 -5 4 -10 10 -10 5 0 7 -7 3 -16 -5 -14 -3 -14 16 -3
25 16 27 25 5 33 -23 9 -34 7 -34 -4z"/>
<path d="M1773 1565 c0 -29 1 -29 30 -14 14 7 8 -4 -18 -30 -42 -45 -40 -53 6
-20 42 29 53 54 33 73 -25 25 -51 20 -51 -9z"/>
<path d="M1913 1514 c-18 -14 -38 -22 -44 -18 -7 4 -9 3 -6 -3 3 -5 -4 -18
-16 -28 -25 -22 -9 -32 23 -15 24 13 43 4 21 -9 -9 -6 -10 -11 -2 -15 12 -8
26 37 17 53 -4 5 -1 13 6 18 14 8 43 43 37 43 -2 0 -19 -12 -36 -26z"/>
<path d="M1990 1529 c0 -5 5 -7 10 -4 6 3 10 8 10 11 0 2 -4 4 -10 4 -5 0 -10
-5 -10 -11z"/>
<path d="M1645 1500 c-3 -5 -1 -10 4 -10 6 0 11 5 11 10 0 6 -2 10 -4 10 -3 0
-8 -4 -11 -10z"/>
<path d="M1590 1481 c0 -10 61 -24 69 -16 8 9 -21 25 -46 25 -13 0 -23 -4 -23
-9z"/>
<path d="M1797 1473 c-10 -9 -9 -23 2 -23 5 0 11 7 15 15 5 15 -5 20 -17 8z"/>
<path d="M1953 1468 c-23 -30 -24 -41 -2 -21 12 12 20 25 17 28 -3 3 -10 0
-15 -7z"/>
</g>
</svg>
